<svg id="changeColor" fill="#DC7633" xmlns="http://www.w3.org/2000/svg" xmlns:xlink="http://www.w3.org/1999/xlink" width="200" zoomAndPan="magnify" viewBox="0 0 375 374.9999" height="200" version="1.0"><defs><path id="pathAttribute" d="M 11.972656 11.972656 L 359.222656 11.972656 L 359.222656 359.222656 L 11.972656 359.222656 Z M 11.972656 11.972656 " fill="#ffffff" stroke-width="2.2" stroke="#727272"></path></defs><g><path id="pathAttribute" d="M 185.597656 359.222656 C 89.675781 359.222656 11.972656 280.984375 11.972656 185.597656 C 11.972656 90.210938 89.675781 11.972656 185.597656 11.972656 C 281.519531 11.972656 359.222656 89.675781 359.222656 185.597656 C 359.222656 281.519531 280.984375 359.222656 185.597656 359.222656 Z M 185.597656 22.691406 C 95.570312 22.691406 22.691406 95.570312 22.691406 185.597656 C 22.691406 275.625 95.570312 348.503906 185.597656 348.503906 C 275.625 348.503906 348.503906 275.625 348.503906 185.597656 C 348.503906 95.570312 275.089844 22.691406 185.597656 22.691406 Z M 185.597656 22.691406 " fill-opacity="1" fill-rule="nonzero" fill="#ffffff" stroke-width="2.2" stroke="#727272"></path></g><g id="inner-icon" transform="translate(85, 75)"> <svg xmlns="http://www.w3.org/2000/svg" class="icon icon-tabler icon-tabler-letter-e" width="199.8" height="199.8" viewBox="0 0 24 24" stroke-width="2" stroke="currentColor" fill="none" stroke-linecap="round" stroke-linejoin="round" id="IconChangeColor"> <path stroke="none" d="M0 0h24v24H0z" fill="none" id="mainIconPathAttribute"></path> <path d="M17 4h-10v16h10" id="mainIconPathAttribute"></path> <line x1="7" y1="12" x2="15" y2="12"></line> </svg> </g></svg>